<svg id="visual" viewBox="0 0 2560 700" width="2560" height="700" xmlns="http://www.w3.org/2000/svg" xmlns:xlink="http://www.w3.org/1999/xlink" version="1.1"><rect x="0" y="0" width="2560" height="700" fill="#fff"></rect><path d="M0 295L53.3 292.7C106.7 290.3 213.3 285.7 320 298.5C426.7 311.3 533.3 341.7 640 361.2C746.7 380.7 853.3 389.3 960 377.7C1066.7 366 1173.3 334 1280 330.7C1386.7 327.3 1493.3 352.7 1600 355.5C1706.7 358.3 1813.3 338.7 1920 345.3C2026.7 352 2133.3 385 2240 383C2346.7 381 2453.3 344 2506.7 325.5L2560 307L2560 0L2506.7 0C2453.3 0 2346.7 0 2240 0C2133.3 0 2026.7 0 1920 0C1813.3 0 1706.7 0 1600 0C1493.3 0 1386.7 0 1280 0C1173.3 0 1066.7 0 960 0C853.3 0 746.7 0 640 0C533.3 0 426.7 0 320 0C213.3 0 106.7 0 53.3 0L0 0Z" fill="#F6E8FF" stroke-linecap="round" stroke-linejoin="miter"></path></svg>