<svg id="visual" viewBox="0 0 2400 800" width="2400" height="800" xmlns="http://www.w3.org/2000/svg" xmlns:xlink="http://www.w3.org/1999/xlink" version="1.1"><rect x="0" y="0" width="2400" height="800" fill="#fff"></rect><path d="M0 141L50 145.5C100 150 200 159 300 176.2C400 193.3 500 218.7 600 253.8C700 289 800 334 900 367C1000 400 1100 421 1200 432.2C1300 443.3 1400 444.7 1500 428.5C1600 412.3 1700 378.7 1800 335.3C1900 292 2000 239 2100 221C2200 203 2300 220 2350 228.5L2400 237L2400 0L2350 0C2300 0 2200 0 2100 0C2000 0 1900 0 1800 0C1700 0 1600 0 1500 0C1400 0 1300 0 1200 0C1100 0 1000 0 900 0C800 0 700 0 600 0C500 0 400 0 300 0C200 0 100 0 50 0L0 0Z" fill="#F6E8FF" stroke-linecap="round" stroke-linejoin="miter"></path></svg>